<?xml version="1.0" encoding="utf-8"?>
<!-- Generator: Adobe Illustrator 22.1.0, SVG Export Plug-In . SVG Version: 6.00 Build 0)  -->
<svg version="1.1" id="Слой_1" xmlns="http://www.w3.org/2000/svg" xmlns:xlink="http://www.w3.org/1999/xlink" x="0px" y="0px"
	 viewBox="0 0 135 135" style="enable-background:new 0 0 135 135;" xml:space="preserve">
<style type="text/css">
	.st0{display:none;fill:url(#SVGID_1_);}
	.st1{opacity:0.5;}
	.st2{fill:#FFFFFF;}
	.st3{opacity:0.1;}
	.st4{opacity:0.3;}
	.st5{opacity:0.2;}
</style>
<linearGradient id="SVGID_1_" gradientUnits="userSpaceOnUse" x1="0.8267" y1="105.9938" x2="134.1733" y2="29.0062">
	<stop  offset="0" style="stop-color:#110C11"/>
	<stop  offset="0.5538" style="stop-color:#333336"/>
</linearGradient>
<path class="st0" d="M110.9,128.6H24.1c-9.8,0-17.8-8-17.8-17.8V24.1c0-9.8,8-17.8,17.8-17.8h86.8c9.8,0,17.8,8,17.8,17.8v86.8
	C128.6,120.6,120.6,128.6,110.9,128.6z"/>
<g id="Outline">
	<g class="st1">
		<path d="M66.8,17.7c-19.4,0-35.1,15.7-35.1,35.1c0,26.3,35.1,65.2,35.1,65.2s35.1-38.8,35.1-65.2C101.8,33.4,86.1,17.7,66.8,17.7z
			 M41.7,52.8c0-13.8,11.2-25.1,25.1-25.1s25.1,11.2,25.1,25.1c0,14.4-14.4,36-25.1,49.5C56.3,88.9,41.7,67,41.7,52.8z"/>
	</g>
	<g>
		<g>
			<g>
				<path class="st2" d="M67.5,17.4c-19.4,0-35.1,15.7-35.1,35.1c0,26.3,35.1,65.2,35.1,65.2s35.1-38.8,35.1-65.2
					C102.6,33.1,86.9,17.4,67.5,17.4z M42.4,52.5c0-13.8,11.2-25.1,25.1-25.1s25.1,11.2,25.1,25.1c0,14.4-14.4,36-25.1,49.5
					C57.1,88.6,42.4,66.7,42.4,52.5z"/>
			</g>
		</g>
	</g>
</g>
<g>
	<g class="st3">
		<path d="M48.3,68L48.3,68c-0.9-1.9-0.4-4.4,1.3-5.5L81.3,41c1.6-1.1,3.7-0.4,4.7,1.5v0c0.9,1.9,0.4,4.4-1.3,5.5L52.9,69.5
			C51.3,70.6,49.2,69.9,48.3,68z"/>
		<path d="M48.5,67.8L48.5,67.8c-0.9-1.9-0.4-4.4,1.3-5.5l31.8-21.5c1.6-1.1,3.7-0.4,4.7,1.5v0c0.9,1.9,0.4,4.4-1.3,5.5L53.2,69.2
			C51.5,70.3,49.4,69.7,48.5,67.8z"/>
	</g>
	<g>
		<g class="st4">
			<path d="M48.5,67.8L48.5,67.8c-0.9-1.9-0.4-4.4,1.3-5.5l31.8-21.5c1.6-1.1,3.7-0.4,4.7,1.5v0c0.9,1.9,0.4,4.4-1.3,5.5L53.2,69.2
				C51.5,70.3,49.4,69.7,48.5,67.8z"/>
		</g>
		<g>
			<path class="st2" d="M48.8,67.5L48.8,67.5c-0.9-1.9-0.4-4.4,1.3-5.5l31.8-21.5c1.6-1.1,3.7-0.4,4.7,1.5v0
				c0.9,1.9,0.4,4.4-1.3,5.5L53.4,69C51.8,70.1,49.7,69.4,48.8,67.5z"/>
		</g>
	</g>
</g>
<g>
	<g class="st5">
		<path d="M47.2,44.3L47.2,44.3c0-2.2,1.8-4,4-4h31c2.2,0,4,1.8,4,4v0c0,2.2-1.8,4-4,4h-31C49,48.3,47.2,46.5,47.2,44.3z"/>
		<path d="M47.5,44L47.5,44c0-2.2,1.8-4,4-4h31c2.2,0,4,1.8,4,4v0c0,2.2-1.8,4-4,4h-31C49.3,48,47.5,46.2,47.5,44z"/>
	</g>
	<g>
		<g class="st4">
			<path d="M47.7,44L47.7,44c0-2.2,1.8-4,4-4h31c2.2,0,4,1.8,4,4v0c0,2.2-1.8,4-4,4h-31C49.5,48,47.7,46.2,47.7,44z"/>
		</g>
		<g>
			<path class="st2" d="M48,43.8L48,43.8c0-2.2,1.8-4,4-4h31c2.2,0,4,1.8,4,4v0c0,2.2-1.8,4-4,4H52C49.8,47.8,48,46,48,43.8z"/>
		</g>
	</g>
</g>
<g>
	<g class="st5">
		<path d="M47,66.7L47,66.7c0-2.2,1.8-4,4-4h31c2.2,0,4,1.8,4,4v0c0,2.2-1.8,4-4,4H51C48.8,70.7,47,68.9,47,66.7z"/>
		<path d="M47.2,66.4L47.2,66.4c0-2.2,1.8-4,4-4h31c2.2,0,4,1.8,4,4v0c0,2.2-1.8,4-4,4h-31C49,70.4,47.2,68.6,47.2,66.4z"/>
		<path d="M47.2,66.4L47.2,66.4c0-2.2,1.8-4,4-4h31c2.2,0,4,1.8,4,4v0c0,2.2-1.8,4-4,4h-31C49,70.4,47.2,68.6,47.2,66.4z"/>
		<path d="M47.5,66.2L47.5,66.2c0-2.2,1.8-4,4-4h31c2.2,0,4,1.8,4,4v0c0,2.2-1.8,4-4,4h-31C49.3,70.2,47.5,68.4,47.5,66.2z"/>
	</g>
	<g>
		<g class="st4">
			<path d="M47.5,66.4L47.5,66.4c0-2.2,1.8-4,4-4h31c2.2,0,4,1.8,4,4v0c0,2.2-1.8,4-4,4h-31C49.3,70.4,47.5,68.6,47.5,66.4z"/>
			<path d="M47.7,66.2L47.7,66.2c0-2.2,1.8-4,4-4h31c2.2,0,4,1.8,4,4v0c0,2.2-1.8,4-4,4h-31C49.5,70.2,47.7,68.4,47.7,66.2z"/>
		</g>
		<g>
			<g class="st4">
				<path d="M47.7,66.2L47.7,66.2c0-2.2,1.8-4,4-4h31c2.2,0,4,1.8,4,4v0c0,2.2-1.8,4-4,4h-31C49.5,70.2,47.7,68.4,47.7,66.2z"/>
			</g>
			<g>
				<path class="st2" d="M48,65.9L48,65.9c0-2.2,1.8-4,4-4h31c2.2,0,4,1.8,4,4v0c0,2.2-1.8,4-4,4H52C49.8,69.9,48,68.1,48,65.9z"/>
			</g>
		</g>
	</g>
</g>
</svg>
